<mxfile host="app.diagrams.net" modified="2024-03-04T17:31:56.600Z" agent="Mozilla/5.0 (Windows NT 10.0; Win64; x64) AppleWebKit/537.36 (KHTML, like Gecko) Chrome/122.0.0.0 Safari/537.36" version="24.0.1" etag="BrdX-Q_5X_zCAG7jiwEX" type="github">
  <diagram name="페이지-1" id="8jDJ4og4NuvtarEvyiku">
    <mxGraphModel>
      <root>
        <mxCell id="0" />
        <mxCell id="1" parent="0" />
      </root>
    </mxGraphModel>
  </diagram>
</mxfile>
